<svg xmlns="http://www.w3.org/2000/svg" xml:space="preserve" style="fill-rule:evenodd;clip-rule:evenodd;stroke-linecap:round;stroke-linejoin:round;stroke-miterlimit:1.5" viewBox="0 0 2169 2958"><g transform="translate(-396.49 -17.999)"><g id="Logo"><path d="M1949.992 600.519c155.612 114.295 256.89 299.886 256.89 509.238 0-209.681-131.765-388.446-315.956-455.966zm256.89 509.238c0 346.994-278.229 628.71-620.928 628.71-232.396 0-435.144-129.553-541.583-321.16l217.675-196.323c49.7 214.013 239.635 373.533 466.075 373.533 264.236 0 478.76-217.214 478.76-484.76M1009.54 1343.788c-28.71-72.349-44.512-151.336-44.512-234.03 0-346.995 278.228-628.71 620.926-628.71 103.188 0 200.532 25.542 286.194 70.716l-83.892 77.028a477 477 0 0 0-60.135-3.794c-264.234 0-478.759 217.213-478.759 484.76q0 6.852.187 13.661z"/><path d="M2088.757 352.88c-128.218-65.983-275.092-103.47-431.13-103.47-499.722 0-905.433 384.481-905.433 858.054s405.71 858.054 905.433 858.054c498.38 0 903.253-382.419 905.423-854.24q.01 2.227.01 4.458c0 605.859-485.404 1097.739-1083.286 1097.739-597.881 0-1083.285-491.88-1083.285-1097.739C396.489 509.88 881.893 18 1479.774 18c264.41 0 506.822 96.202 694.98 255.92zm153.84-16.263c185.445 186.454 304.778 440.334 319.025 722.147-16.135-272.732-166.934-511.613-390.339-657.829z"/><path d="M1758.444 2532.023c-161.989 50.626-328.914 77.185-501.154 77.84 58.17 71.153 134.566 118.005 242.71 122.525 129.471-6.274 209.699-81.332 258.444-200.365m-607.659-105.535c213.117 12.079 429.543-26.594 648.665-106.61 43.776-3.181 68.092 15.692 81.834 46.548 2.059 34.245-7.803 50.609-21.772 60.813-153.318 78.917-385.484 120.786-704.973 121.624-32.853-7.958-54.998-27.815-51.803-75.828 7.758-25.838 24.275-40.729 48.049-46.547" style="stroke:#000;stroke-opacity:.66;stroke-width:3.44px" transform="translate(-307.89 -340.439)scale(1.21298)"/><path d="M728.693 1886.008c439.343 442.137 1087.973 402.273 1485.467 31.65-113.026 104.348-187.326 229.916-203.21 394.977-67.695 150.675-825.92 254.45-957.939 217.17-74.767-21.115-80.642-106.753-4.637-142.496 268.443 1.29 485.59-49.857 644.753-160.277-124.751 58.608-610.956 122.694-701.121 64.068-35.218-22.9-37.177-117.24-60.272-161.429-54.185-103.678-139.153-171.987-203.04-243.663"/><path d="M2372.913 301.202 886.281 1642.307l135.179 146.635z" style="stroke:#000;stroke-width:3.44px" transform="translate(-315.168 -316.18)scale(1.21298)"/></g><path d="M1789.652 976.846c48.896-1.31 77.743 5.485 90.138 18.93 59.377 66.392 106.882 124.473 150.711 179.982v-168.624c-3.58-18.358-16.805-27.073-39.025-26.793v-4.077h87.952v4.66c-20.98-.87-33.964 6.985-37.86 24.754v276.962zm.53 73.21c5.461 75.669 30.724 102.837 68.26 107.547-40.207 5.282-63.893 36.037-68.26 104.717-4.485-59.554-25.224-97.429-69.322-104.151 39.583-6.74 63.693-40.996 69.322-108.113"/></g></svg>